<svg width="16" height="20" viewBox="0 0 16 20" fill="none" xmlns="http://www.w3.org/2000/svg">
<path d="M5.70711 11.2929C5.31658 10.9024 4.68342 10.9024 4.29289 11.2929C3.90237 11.6834 3.90237 12.3166 4.29289 12.7071L5 12L5.70711 11.2929ZM7 14L6.29289 14.7071C6.68342 15.0976 7.31658 15.0976 7.70711 14.7071L7 14ZM11.7071 10.7071C12.0976 10.3166 12.0976 9.68342 11.7071 9.29289C11.3166 8.90237 10.6834 8.90237 10.2929 9.29289L11 10L11.7071 10.7071ZM15 5H14V17H15H16V5H15ZM13 19V18H3V19V20H13V19ZM1 17H2V5H1H0V17H1ZM3 3V4H5V3V2H3V3ZM11 3V4H13V3V2H11V3ZM3 19V18C2.44772 18 2 17.5523 2 17H1H0C0 18.6569 1.34315 20 3 20V19ZM15 17H14C14 17.5523 13.5523 18 13 18V19V20C14.6569 20 16 18.6569 16 17H15ZM15 5H16C16 3.34315 14.6569 2 13 2V3V4C13.5523 4 14 4.44772 14 5H15ZM1 5H2C2 4.44772 2.44772 4 3 4V3V2C1.34315 2 0 3.34315 0 5H1ZM5 12L4.29289 12.7071L6.29289 14.7071L7 14L7.70711 13.2929L5.70711 11.2929L5 12ZM7 14L7.70711 14.7071L11.7071 10.7071L11 10L10.2929 9.29289L6.29289 13.2929L7 14ZM7 1V2H9V1V0H7V1ZM9 5V4H7V5V6H9V5ZM7 5V4C6.44772 4 6 3.55228 6 3H5H4C4 4.65685 5.34315 6 7 6V5ZM11 3H10C10 3.55228 9.55228 4 9 4V5V6C10.6569 6 12 4.65685 12 3H11ZM9 1V2C9.55228 2 10 2.44772 10 3H11H12C12 1.34315 10.6569 0 9 0V1ZM7 1V0C5.34315 0 4 1.34315 4 3H5H6C6 2.44772 6.44772 2 7 2V1Z" fill="#F34E4E"/>
</svg>
