<svg width="95" height="38" viewBox="0 0 95 38" fill="none" xmlns="http://www.w3.org/2000/svg">
<path d="M39.679 28L34.735 20.632V28H29.407V11.008H34.735V18.16L39.607 11.008H45.631L39.775 19.144L46.015 28H39.679ZM46.8042 21.232C46.8042 19.808 47.0442 18.576 47.5242 17.536C48.0202 16.48 48.6922 15.68 49.5402 15.136C50.3882 14.576 51.3402 14.296 52.3962 14.296C53.2762 14.296 54.0362 14.48 54.6762 14.848C55.3162 15.2 55.8042 15.688 56.1402 16.312V14.464H61.4442V28H56.1402V26.152C55.8042 26.776 55.3162 27.272 54.6762 27.64C54.0362 27.992 53.2762 28.168 52.3962 28.168C51.3402 28.168 50.3882 27.896 49.5402 27.352C48.6922 26.792 48.0202 25.992 47.5242 24.952C47.0442 23.896 46.8042 22.656 46.8042 21.232ZM56.1402 21.232C56.1402 20.512 55.9562 19.952 55.5882 19.552C55.2202 19.152 54.7482 18.952 54.1722 18.952C53.5962 18.952 53.1242 19.152 52.7562 19.552C52.3882 19.952 52.2042 20.512 52.2042 21.232C52.2042 21.952 52.3882 22.512 52.7562 22.912C53.1242 23.312 53.5962 23.512 54.1722 23.512C54.7482 23.512 55.2202 23.312 55.5882 22.912C55.9562 22.512 56.1402 21.952 56.1402 21.232ZM73.3167 14.368C74.8687 14.368 76.0767 14.888 76.9407 15.928C77.8207 16.968 78.2607 18.376 78.2607 20.152V28H72.9567V20.824C72.9567 20.184 72.7807 19.68 72.4287 19.312C72.0927 18.928 71.6367 18.736 71.0607 18.736C70.4687 18.736 70.0047 18.928 69.6687 19.312C69.3327 19.68 69.1647 20.184 69.1647 20.824V28H63.8367V14.464H69.1647V16.528C69.5807 15.888 70.1327 15.368 70.8207 14.968C71.5247 14.568 72.3567 14.368 73.3167 14.368ZM83.2111 13.384C82.2831 13.384 81.5391 13.136 80.9791 12.64C80.4191 12.144 80.1391 11.52 80.1391 10.768C80.1391 10 80.4191 9.368 80.9791 8.872C81.5391 8.36 82.2831 8.104 83.2111 8.104C84.1231 8.104 84.8591 8.36 85.4191 8.872C85.9791 9.368 86.2591 10 86.2591 10.768C86.2591 11.52 85.9791 12.144 85.4191 12.64C84.8591 13.136 84.1231 13.384 83.2111 13.384ZM85.8991 28.936C85.8991 32.632 84.0431 34.48 80.3311 34.48H78.5551V29.944H79.5871C79.9391 29.944 80.1871 29.872 80.3311 29.728C80.4911 29.584 80.5711 29.352 80.5711 29.032V14.464H85.8991V28.936ZM90.9466 13.384C90.0186 13.384 89.2746 13.136 88.7146 12.64C88.1546 12.144 87.8746 11.52 87.8746 10.768C87.8746 10 88.1546 9.368 88.7146 8.872C89.2746 8.36 90.0186 8.104 90.9466 8.104C91.8586 8.104 92.5946 8.36 93.1546 8.872C93.7146 9.368 93.9946 10 93.9946 10.768C93.9946 11.52 93.7146 12.144 93.1546 12.64C92.5946 13.136 91.8586 13.384 90.9466 13.384ZM93.5866 14.464V28H88.2586V14.464H93.5866Z" fill="white"/>
<path d="M0 12C0 5.37258 5.37258 0 12 0C18.6274 0 24 5.37258 24 12C24 18.6274 18.6274 24 12 24C5.37258 24 0 18.6274 0 12Z" fill="white"/>
<path d="M12 20C12 15.5817 15.5817 12 20 12C24.4183 12 28 15.5817 28 20C28 24.4183 24.4183 28 20 28C15.5817 28 12 24.4183 12 20Z" fill="#F34E4E"/>
</svg>
